<svg width="70" height="36" viewBox="0 0 70 36" fill="none" xmlns="http://www.w3.org/2000/svg">
<path fill-rule="evenodd" clip-rule="evenodd" d="M42.189 22.0459C42.7126 24.7479 41.2958 26.9921 40.117 29.1719C38.8108 31.1991 36.6534 32.9421 34.0592 32.6803C28.2408 32.5935 22.5512 31.7003 17.2788 30.1085C17.0408 30.0385 16.7986 29.8845 16.6684 29.6661C16.5592 29.3609 16.7104 29.0781 16.9302 28.8821C21.7462 24.9803 27.4778 23.1701 33.145 21.2759C35.259 20.6669 37.5032 20.0131 39.879 20.3183C40.859 20.4471 41.839 21.1219 42.189 22.0403V22.0459ZM62.0438 10.4931C64.7458 12.7163 67.1874 15.7459 66.3586 19.4069C65.0006 24.8109 59.1206 27.6879 54.4306 29.5191C51.8826 30.3689 49.3094 31.2411 46.5206 31.5029C46.3442 31.4819 46.0614 31.5253 46.0166 31.2649L46.0866 30.9569C50.0514 26.4909 53.0586 21.4789 55.6962 16.3997C56.917 14.1107 58.0482 11.7573 59.0954 9.44733C59.2494 9.27933 59.4006 9.19253 59.5756 9.12533C60.5556 9.21493 61.2528 9.97933 62.0396 10.4973L62.0438 10.4931ZM24.0142 4.73913L23.9274 5.06814C18.2 11.5851 14.434 19.1479 10.85 26.6659C10.1556 27.3197 9.47799 26.4475 8.84799 26.1647C5.66579 24.0731 2.78599 20.6949 3.61759 16.6839C4.94759 11.4535 10.3306 8.66193 14.8176 6.76774C17.4776 5.76534 20.2454 4.95893 23.1658 4.49973C23.4696 4.49973 23.8616 4.45773 24.0156 4.74053L24.0142 4.73913ZM52.4538 5.78634C52.78 5.96134 53.1734 6.02433 53.3694 6.35333C53.5514 6.73133 53.2014 6.96933 53.0054 7.20733C48.4946 10.7353 43.3286 12.7023 38.0534 14.4243C35.3738 15.0795 32.6718 16.2583 29.6856 15.6031C28.9856 15.4281 28.3556 14.9731 27.9636 14.2955C27.2216 12.2487 28.2254 10.1095 29.0976 8.32593C30.2512 6.08033 32.2994 3.44274 35.1316 3.39794C41.2356 3.35314 46.9896 4.26593 52.4608 5.79193L52.4538 5.78634ZM59.9956 5.95994C64.6156 8.48834 69.846 12.9319 69.3014 18.8623C68.6714 24.3545 63.5474 28.1905 58.9778 30.5005C45.619 36.8845 26.8534 37.0805 13.0578 31.4945C8.39579 29.5569 3.16399 26.2221 1.20259 21.2087C-0.301011 17.0899 1.52879 12.7947 4.60179 9.94153C11.0306 4.09934 19.2248 2.09454 27.6598 0.939536C36.813 -0.172063 46.4478 0.809338 54.6406 3.62054C56.4718 4.29674 58.2806 5.03874 60.0026 5.95294L59.9956 5.95994Z" fill="#7B7B7B"/>
</svg>
