<svg width="72" height="36" viewBox="0 0 72 36" fill="none" xmlns="http://www.w3.org/2000/svg">
<path fill-rule="evenodd" clip-rule="evenodd" d="M36 0.499756C16.3748 0.499756 0.465179 8.52176 0.465179 18.4142C0.465179 26.425 10.8952 33.208 25.2872 35.4998L36 9.90776L46.7142 35.4998C61.1034 33.208 71.5362 26.425 71.5362 18.4142C71.5362 8.52176 55.6238 0.499756 36 0.499756ZM52.317 27.4078L36 8.45455L19.7432 27.3518C11.738 25.1188 6.46138 21.2058 6.46138 16.3982C6.46138 8.77095 19.5934 1.61975 35.9734 1.61975C52.3534 1.61975 65.7934 8.77095 65.7934 16.3982C65.7934 21.2422 60.437 25.1804 52.3254 27.4064L52.317 27.4078Z" fill="#7B7B7B"/>
</svg>
