<svg width="60" height="42" viewBox="0 0 60 42" fill="none" xmlns="http://www.w3.org/2000/svg">
<path d="M30 41.9997C39.6782 41.9997 48.2616 38.6201 53.5816 33.4149L48.788 33.4359C44.2548 37.2481 37.63 39.6477 30.119 39.6477C16.1092 39.6477 5.17098 31.2981 5.17098 20.9997C5.17098 9.12075 16.1092 2.35176 30.119 2.35176C31.0094 2.35456 31.7234 2.76476 31.1886 3.53756C28.2766 7.04175 19.9886 18.3188 18.4766 20.7618C15.4946 25.5777 15.5646 31.5137 22.8726 31.9281H53.59C55.1608 31.9281 55.5584 31.1917 56.124 30.4245C58.182 27.6427 59.2264 24.3905 59.225 20.9997C59.2194 12.1476 52.9908 5.51296 43.825 2.25096L42.411 4.36775C50.027 7.17895 55.0614 12.8574 55.0614 20.9997C55.0614 22.4137 54.8556 23.7913 54.4636 25.1157C54.122 26.2637 53.4556 27.2367 52.1956 27.2367H27.676C24.5358 27.2367 25.7496 23.9957 26.913 22.4249C28.6 19.401 37.84 6.80375 40.066 4.45735C40.633 3.59635 42.222 1.81415 40.0324 1.13095C36.902 0.388954 33.5224 -0.000244141 30 -0.000244141C13.8552 -0.000244141 0.776379 8.28775 0.767979 20.9997C0.759579 33.8293 13.8552 41.9997 30 41.9997Z" fill="#7B7B7B"/>
</svg>
