<svg width="68" height="38" viewBox="0 0 68 38" fill="none" xmlns="http://www.w3.org/2000/svg">
<path d="M0.540009 18.9998C0.540009 8.91981 16.08 0.799805 34.14 0.799805C52.2 0.799805 67.46 8.91981 67.46 18.9998C67.46 29.0798 52.34 37.1998 34.14 37.1998C15.94 37.1998 0.540009 29.0798 0.540009 18.9998ZM34.14 35.2398C51.08 35.2398 65.08 27.8198 65.08 18.9998C65.08 10.1798 50.8 2.75981 34.14 2.75981C17.48 2.75981 3.06001 9.89981 3.06001 18.9998C3.06001 28.0998 16.78 35.2398 34.14 35.2398ZM42.82 28.7998C43.38 28.7998 45.06 29.2198 45.9 29.2198C46.46 29.2198 47.02 29.7798 47.02 30.1998C47.02 30.3398 47.16 30.8998 47.44 31.3198C47.58 31.7398 47.58 32.2998 47.58 32.2998C47.58 32.2998 47.58 32.4398 47.72 32.4398C47.72 32.4398 47.86 32.4398 47.86 32.2998C47.86 32.2998 48 31.7398 48 31.3198C48.14 30.8998 48.14 30.6198 48.42 30.1998C48.56 29.6398 48.98 29.2198 49.54 29.2198C50.24 29.0798 52.06 28.7998 52.76 28.7998C53.46 28.6598 54.72 28.6598 54.86 28.6598C55 28.6598 55 28.5198 55 28.5198C55 28.3798 55 28.3798 54.86 28.3798L52.76 28.2398C51.78 28.0998 50.1 27.8198 49.54 27.6798C48.98 27.6798 48.56 27.2598 48.42 26.9798C48.28 26.5598 48.28 26.4198 48 25.9998C48 25.8598 47.58 25.0198 47.58 24.8798C47.58 24.7398 47.44 24.7398 47.44 24.7398C47.44 24.7398 47.3 24.7398 47.3 24.8798C47.3 25.0198 47.16 25.8598 46.88 25.9998C46.88 26.4198 46.74 26.5598 46.46 26.9798C46.32 27.3998 45.9 27.6798 45.34 27.9598C44.36 28.0998 42.68 28.3798 42.26 28.5198C41.28 28.6598 40.3 28.6598 39.46 28.6598C38.76 28.6598 36.8 28.2398 35.68 28.0998C34.98 27.9598 34.14 27.9598 33.72 27.1198C33.58 26.6998 33.3 26.4198 33.16 25.8598C33.02 25.4398 32.74 24.7398 32.74 24.5998C32.74 24.4598 32.6 24.4598 32.6 24.4598C32.6 24.4598 32.46 24.4598 32.46 24.5998C32.46 24.7398 32.32 25.5798 32.04 25.8598C31.9 26.2798 31.62 26.8398 31.48 27.1198C31.06 27.6798 30.78 27.6798 29.8 27.8198C28.82 27.9598 27.56 28.2398 26.58 28.2398L24.9 28.3798C24.76 28.3798 24.76 28.3798 24.76 28.5198C24.76 28.6598 24.76 28.6598 24.9 28.6598L26.58 28.7998C27.56 28.7998 28.54 28.9398 29.8 29.2198C31.06 29.3598 31.34 29.6398 31.76 30.4798C31.9 30.8998 32.18 31.1798 32.18 31.7398L32.6 33.2798C32.6 33.4198 32.6 33.4198 32.74 33.4198C32.88 33.4198 32.88 33.4198 32.88 33.2798C32.88 33.1398 33.02 32.1598 33.3 31.7398C33.44 31.3198 33.44 31.0398 33.72 30.4798C34.14 29.3598 34.42 29.3598 35.82 29.2198C37.08 29.0798 38.62 28.7998 39.6 28.6598C40.72 28.5198 41.7 28.6598 42.82 28.7998ZM52.48 21.7998C53.04 21.7998 54.02 21.9398 55 22.3598C55.56 22.3598 55.98 22.9198 56.12 23.3398C56.26 23.7598 56.26 24.3198 56.54 24.8798C56.68 25.4398 56.68 25.5798 56.68 25.8598C56.68 26.1398 56.82 25.9998 56.82 25.9998C56.96 25.9998 56.96 25.9998 56.96 25.8598C56.96 25.8598 56.96 25.2998 57.1 24.8798C57.24 24.4598 57.24 23.8998 57.52 23.3398C57.66 22.9198 58.08 22.6398 58.5 22.3598L60.74 21.9398L62.7 21.7998C62.84 21.7998 62.84 21.6598 62.84 21.6598C62.84 21.5198 62.7 21.5198 62.7 21.5198L60.74 21.3798C59.76 21.2398 59.06 20.9598 58.5 20.9598C58.08 20.9598 57.8 20.5398 57.52 20.2598C57.38 19.8398 57.1 19.5598 57.1 19.1398L56.96 18.1598C56.96 18.0198 56.82 18.0198 56.82 18.0198C56.82 18.0198 56.68 18.0198 56.68 18.1598C56.68 18.2998 56.4 18.5798 56.4 18.9998C56.26 19.4198 56.26 19.6998 55.98 20.1198C55.84 20.5398 55.42 20.6798 55 20.8198C54.02 20.9598 53.04 21.2398 52.48 21.3798C51.36 21.5198 49.96 21.5198 48.84 21.3798C48.14 21.2398 46.6 20.9598 45.62 20.8198C45.06 20.8198 44.5 20.3998 44.08 19.8398C43.94 19.4198 43.66 18.8598 43.66 18.5798C43.66 18.1598 43.52 17.5998 43.24 17.4598C43.1 17.3198 43.24 17.3198 43.1 17.3198C42.96 17.3198 42.96 17.3198 42.96 17.4598C42.96 17.5998 42.82 18.1598 42.54 18.5798C42.4 18.9998 42.12 19.5598 41.98 19.8398C41.84 20.3998 41.28 20.8198 40.72 20.8198C39.74 20.9598 38.48 21.2398 37.08 21.3798L35.4 21.6598C35.26 21.6598 35.26 21.6598 35.26 21.7998C35.26 21.9398 35.26 21.9398 35.4 21.9398L37.36 22.0798L41 22.6398C41.7 22.6398 42.54 23.3398 42.54 24.1798C42.68 24.7398 42.68 25.1598 42.96 25.7198C43.1 26.2798 43.1 26.6998 43.1 26.6998C43.1 26.8398 43.24 26.8398 43.24 26.8398C43.24 26.8398 43.38 26.8398 43.38 26.6998C43.38 26.5598 43.52 25.9998 43.52 25.7198C43.52 25.4398 43.66 24.7398 43.94 24.1798C44.08 23.1998 44.5 22.9198 45.62 22.6398C46.74 22.3598 48.14 22.2198 48.84 22.0798C50.24 21.7998 51.36 21.7998 52.48 21.7998ZM60.32 14.6598L58.08 14.2398C57.1 14.0998 56.12 14.0998 55.28 13.8198C54.72 13.8198 54.3 13.3998 54.16 13.1198C54.02 12.5598 53.74 12.1398 53.6 11.5798C53.6 11.4398 53.46 10.8798 53.46 10.5998C53.46 10.4598 53.32 10.4598 53.32 10.4598C53.32 10.4598 53.18 10.4598 53.18 10.5998L53.04 11.5798C52.9 12.1398 52.62 12.6998 52.48 13.1198C52.34 13.6798 51.78 13.8198 51.22 13.8198C50.66 13.9598 49.12 14.2398 47.86 14.3798C46.18 14.7998 44.5 14.7998 42.54 14.3798L39.18 13.9598C36.66 13.5398 32.74 13.2598 30.22 12.8398C28.68 12.8398 27.42 11.8598 27 10.3198L25.88 6.95981C25.74 5.97981 25.32 4.8598 25.32 4.4398C25.32 4.0198 25.18 4.29981 25.18 4.29981C25.04 4.29981 25.04 4.2998 25.04 4.4398C25.04 4.5798 24.62 6.11981 24.48 6.95981C24.34 7.65981 23.92 9.19981 23.36 10.3198C22.8 11.5798 21.68 12.5598 20.14 12.8398C17.62 13.3998 14.68 13.5398 12.02 13.9598L6.56001 14.5198C6.42001 14.5198 6.42 14.6598 6.42 14.6598C6.42 14.7998 6.56001 14.7998 6.56001 14.7998L12.02 15.3598C14.82 15.7798 17.48 15.9198 20.14 16.4798C21.82 16.6198 23.36 18.0198 23.5 19.8398C23.92 21.0998 24.48 23.1998 24.62 24.1798C24.76 24.8798 25.04 26.4198 25.18 26.6998C25.18 26.8398 25.32 26.8398 25.32 26.8398C25.32 26.8398 25.46 26.8398 25.46 26.6998C25.46 26.5598 25.88 25.0198 26.02 24.1798C26.16 23.4798 26.72 20.9598 27 19.8398C27.56 17.7398 28.26 17.0398 30.36 16.6198C32.46 16.1998 36.66 15.6398 39.32 15.4998L42.68 15.0798C44.36 14.6598 46.04 14.6598 48 15.0798C49.26 15.2198 50.24 15.4998 51.22 15.6398C52.2 15.7798 52.34 16.0598 52.76 16.7598L53.32 18.4398C53.46 18.8598 53.46 19.4198 53.46 19.5598C53.46 19.6998 53.6 19.6998 53.6 19.6998C53.74 19.6998 53.74 19.6998 53.74 19.5598C53.74 19.4198 53.88 18.8598 53.88 18.4398C53.88 18.0198 54.3 17.3198 54.44 16.7598C54.58 16.1998 55 15.7798 55.56 15.7798C56.26 15.6398 57.52 15.3598 58.36 15.3598C59.34 15.2198 60.46 15.2198 60.6 14.9398C60.74 14.9398 60.74 14.7998 60.74 14.7998C60.46 14.7998 60.46 14.6598 60.32 14.6598Z" fill="#7B7B7B"/>
</svg>
