<svg width="62" height="40" viewBox="0 0 62 40" fill="none" xmlns="http://www.w3.org/2000/svg">
<path d="M29.1142 37.6049C25.96 35.6281 23.6346 28.8101 23.6346 20.7069V19.8249L23.6402 19.8277C14.872 18.4487 8.53 14.6701 8.3676 10.1999L8.3396 10.2531C6.1934 12.9215 4.9656 16.0071 4.9656 19.2943C4.9656 28.9683 15.586 36.8923 29.0554 37.5951L29.1114 37.6049H29.1142ZM0.914001 19.9999C0.914001 9.17791 14.382 0.399902 31 0.399902C47.618 0.399902 61.086 9.17791 61.086 19.9999C61.086 30.8219 47.618 39.5999 31 39.5999C14.382 39.5999 0.914001 30.8219 0.914001 19.9999ZM31 3.2279C34.206 3.2279 36.936 8.09431 37.9468 14.8843L37.951 14.8731C44.1922 13.9015 48.5602 11.6601 48.5602 9.05331C48.5602 5.55331 40.6978 2.7253 31 2.7253C21.3022 2.7253 13.4398 5.55331 13.4398 9.05331C13.4398 11.6629 17.8078 13.9043 24.049 14.8773L24.0532 14.8871C25.064 8.09711 27.7912 3.2307 31 3.2307V3.2279ZM32.9418 37.5937C46.4098 36.8937 57.0288 28.9669 57.0288 19.2929C57.0288 16.0057 55.8024 12.9201 53.6548 10.2517L53.6268 10.1999C53.4658 14.6659 47.1266 18.4459 38.3528 19.8263L38.3556 19.8221C38.3612 20.1161 38.3654 20.4101 38.3654 20.7041C38.3654 28.8101 36.0414 35.6281 32.8914 37.6021L32.9474 37.5937H32.9418ZM31 15.3897C32.4378 15.3897 33.8336 15.3267 35.172 15.2077L35.1692 15.2105C34.5042 10.8565 32.8872 7.78071 31 7.78071C29.11 7.78071 27.4972 10.8523 26.8308 15.2035V15.2007C28.1664 15.3183 29.5636 15.3799 31 15.3799V15.3897ZM31 31.5065C33.415 31.5065 35.3848 26.4805 35.4898 20.1693L35.5038 20.1735C34.0478 20.3065 32.5414 20.3779 31 20.3779C29.46 20.3779 27.9522 20.3079 26.4976 20.1735L26.5116 20.1679C26.6152 26.4735 28.5836 31.4995 31 31.4995V31.5065Z" fill="#7B7B7B"/>
</svg>
