<svg width="60" height="60" viewBox="0 0 60 60" fill="none" xmlns="http://www.w3.org/2000/svg">
<path d="M30 59.1199C46.1 59.1199 59.12 46.0999 59.12 29.9999C59.12 13.8999 46.1 0.879883 30 0.879883C13.9 0.879883 0.880005 13.8999 0.880005 29.9999C0.880005 46.0999 13.9 59.1199 30 59.1199ZM21.6 42.0399C21.46 42.0399 21.46 41.8999 21.32 41.7599L8.16001 16.5599C10.4 12.7799 13.76 9.69988 17.68 7.45988L26.92 27.4799C27.06 27.8999 27.34 28.0399 27.62 28.0399H32.38C32.66 28.0399 32.94 27.8999 33.08 27.4799L42.32 7.59988C46.1 9.83988 49.46 12.9199 51.84 16.6999L38.82 41.8999C38.68 42.0399 38.68 42.1799 38.54 42.1799C38.4 42.1799 38.4 42.0399 38.26 41.8999L33.22 30.8399C33.08 30.4199 32.8 30.2799 32.52 30.2799H27.76C27.48 30.2799 27.2 30.4199 27.06 30.8399L22.02 41.8999C21.74 41.8999 21.74 42.0399 21.6 42.0399ZM30 23.2799C29.86 23.2799 29.86 23.1399 29.72 22.9999L21.74 5.77988C24.4 4.79988 27.2 4.37988 30 4.37988C32.8 4.37988 35.74 4.93988 38.26 5.77988L30.28 22.9999C30.14 23.1399 30.14 23.2799 30 23.2799ZM30 55.6199C16 55.6199 4.38 43.9999 4.38 29.9999C4.38 27.0599 4.94 24.2599 5.78 21.5999L20.76 50.7199C20.9 51.1399 21.18 51.4199 21.74 51.4199C22.3 51.4199 22.44 51.1399 22.72 50.7199L29.72 35.1799C29.86 35.0399 29.86 34.8999 30 34.8999C30.14 34.8999 30.14 35.0399 30.28 35.1799L37.28 50.7199C37.42 51.1399 37.7 51.4199 38.26 51.4199C38.82 51.4199 38.96 51.1399 39.24 50.7199L54.22 21.5999C55.2 24.2599 55.62 27.0599 55.62 29.9999C55.62 43.9999 44 55.6199 30 55.6199Z" fill="#7B7B7B"/>
</svg>
