<svg width="253" height="15" viewBox="0 0 253 15" fill="none" xmlns="http://www.w3.org/2000/svg">
<path d="M50.1227 0.405548C49.5633 0.405548 49.1099 0.859466 49.1099 1.4194V13.5856C49.1099 14.1456 49.5633 14.5995 50.1227 14.5995C50.682 14.5995 51.1354 14.1456 51.1354 13.5856V1.4194C51.1354 0.859466 50.682 0.405548 50.1227 0.405548Z" fill="white"/>
<path d="M54.1737 12.5718C53.6143 12.5718 53.1609 13.0257 53.1609 13.5856C53.1609 14.1456 53.6143 14.5995 54.1737 14.5995H58.2246C58.784 14.5995 59.2374 14.1456 59.2374 13.5856C59.2374 13.0257 58.784 12.5718 58.2246 12.5718H54.1737Z" fill="white"/>
<path d="M38.7948 1.11344C38.6133 0.570581 38.0266 0.277754 37.4844 0.459392C36.9421 0.641029 36.6496 1.22835 36.8311 1.77121L41.0159 14.2921C41.1974 14.835 41.784 15.1278 42.3263 14.9462C42.8686 14.7645 43.1611 14.1772 42.9796 13.6343L38.7948 1.11344Z" fill="white"/>
<path d="M32.4617 13.55C32.2802 14.0929 32.5728 14.6802 33.115 14.8619C33.6573 15.0435 34.244 14.7507 34.4254 14.2078L36.4253 8.22431C36.6067 7.68145 36.3142 7.09413 35.7719 6.91249C35.2297 6.73086 34.643 7.02368 34.4616 7.56654L32.4617 13.55Z" fill="white"/>
<path d="M17.2167 0.405548C16.6574 0.405548 16.204 0.859466 16.204 1.4194C16.204 1.97934 16.6574 2.43326 17.2167 2.43326H25.3187C25.878 2.43326 26.3314 1.97934 26.3314 1.4194C26.3314 0.859466 25.878 0.405548 25.3187 0.405548H17.2167Z" fill="white"/>
<path d="M17.2167 6.48867C16.6574 6.48867 16.204 6.94259 16.204 7.50252V13.5856C16.204 14.1456 16.6574 14.5995 17.2167 14.5995H25.3187C25.878 14.5995 26.3314 14.1456 26.3314 13.5856C26.3314 13.0257 25.878 12.5718 25.3187 12.5718H18.2294V8.51638H25.3187C25.878 8.51638 26.3314 8.06246 26.3314 7.50252C26.3314 6.94259 25.878 6.48867 25.3187 6.48867H17.2167Z" fill="white"/>
<path d="M66.3266 0.405548C65.7673 0.405548 65.3139 0.859466 65.3139 1.4194C65.3139 1.97934 65.7673 2.43326 66.3266 2.43326H74.4286C74.9879 2.43326 75.4413 1.97934 75.4413 1.4194C75.4413 0.859466 74.9879 0.405548 74.4286 0.405548H66.3266Z" fill="white"/>
<path d="M66.3266 6.48867C65.7673 6.48867 65.3139 6.94259 65.3139 7.50252V13.5856C65.3139 14.1456 65.7673 14.5995 66.3266 14.5995H74.4286C74.9879 14.5995 75.4413 14.1456 75.4413 13.5856C75.4413 13.0257 74.9879 12.5718 74.4286 12.5718H67.3394V8.51638H74.4286C74.9879 8.51638 75.4413 8.06246 75.4413 7.50252C75.4413 6.94259 74.9879 6.48867 74.4286 6.48867H66.3266Z" fill="white"/>
<path d="M82.5306 0.405548C81.9712 0.405548 81.5178 0.859466 81.5178 1.4194C81.5178 1.97934 81.9712 2.43326 82.5306 2.43326H89.6198V6.48867H82.5306C81.9712 6.48867 81.5178 6.94259 81.5178 7.50252C81.5178 8.06246 81.9712 8.51638 82.5306 8.51638H90.6325C91.1919 8.51638 91.6453 8.06246 91.6453 7.50252V1.4194C91.6453 0.859466 91.1919 0.405548 90.6325 0.405548H82.5306Z" fill="white"/>
<path d="M85.6723 11.124C85.9193 10.6117 86.5302 10.3989 87.0367 10.6488L91.072 12.6395C91.5785 12.8894 91.7888 13.5073 91.5418 14.0196C91.2948 14.5319 90.6839 14.7447 90.1774 14.4948L86.1421 12.5041C85.6356 12.2542 85.4253 11.6363 85.6723 11.124Z" fill="white"/>
<path d="M0 1.4194C0 0.859466 0.453422 0.405548 1.01275 0.405548C1.57207 0.405548 2.02549 0.859466 2.02549 1.4194V9.53023C2.02549 10.0902 1.57207 10.5441 1.01275 10.5441C0.453422 10.5441 0 10.0902 0 9.53023V1.4194Z" fill="white"/>
<path d="M0 13.5856C0 13.0257 0.453422 12.5718 1.01275 12.5718H8.10198V2.43326H5.06373C4.50441 2.43326 4.05099 1.97934 4.05099 1.4194C4.05099 0.859466 4.50441 0.405548 5.06373 0.405548H9.11472C9.67405 0.405548 10.1275 0.859466 10.1275 1.4194V13.5856C10.1275 14.1456 9.67405 14.5995 9.11472 14.5995H1.01275C0.453423 14.5995 0 14.1456 0 13.5856Z" fill="white"/>
<g opacity="0.5">
<path d="M111.9 1.4194C111.9 0.85946 112.354 0.405542 112.913 0.405542C113.472 0.405542 113.926 0.859459 113.926 1.4194V13.5856C113.926 14.1456 113.472 14.5995 112.913 14.5995C112.354 14.5995 111.9 14.1456 111.9 13.5856V1.4194Z" fill="white"/>
<path d="M218.441 1.4194C218.441 0.85946 218.895 0.405542 219.454 0.405542C220.013 0.405542 220.467 0.859459 220.467 1.4194V13.5856C220.467 14.1456 220.013 14.5995 219.454 14.5995C218.895 14.5995 218.441 14.1456 218.441 13.5856V1.4194Z" fill="white"/>
<path fill-rule="evenodd" clip-rule="evenodd" d="M203.25 0.405542C202.691 0.405542 202.237 0.859459 202.237 1.4194C202.237 1.97933 202.691 2.43325 203.25 2.43325H211.352C211.911 2.43325 212.365 1.97933 212.365 1.4194C212.365 0.859459 211.911 0.405542 211.352 0.405542H203.25ZM207.301 7.70529C206.742 7.70529 206.288 8.15921 206.288 8.71914V13.5856C206.288 14.1456 206.742 14.5995 207.301 14.5995C207.86 14.5995 208.314 14.1456 208.314 13.5856V8.71914C208.314 8.15921 207.86 7.70529 207.301 7.70529Z" fill="white"/>
<path fill-rule="evenodd" clip-rule="evenodd" d="M153.423 0.405542C152.864 0.405542 152.41 0.85946 152.41 1.4194V13.5856C152.41 14.1456 152.864 14.5995 153.423 14.5995H161.525C162.084 14.5995 162.538 14.1456 162.538 13.5856V1.4194C162.538 0.859459 162.084 0.405542 161.525 0.405542H153.423ZM160.512 2.43325H154.436V12.5718H160.512V2.43325Z" fill="white"/>
<path fill-rule="evenodd" clip-rule="evenodd" d="M227.556 0.405542C226.997 0.405542 226.543 0.85946 226.543 1.4194V13.5856C226.543 14.1456 226.997 14.5995 227.556 14.5995H235.658C236.217 14.5995 236.671 14.1456 236.671 13.5856V1.4194C236.671 0.859459 236.217 0.405542 235.658 0.405542H227.556ZM234.645 2.43325H228.569V12.5718H234.645V2.43325Z" fill="white"/>
<path fill-rule="evenodd" clip-rule="evenodd" d="M175.511 6.69139C175.329 7.23425 175.622 7.82157 176.164 8.00321C176.707 8.18484 177.293 7.89202 177.475 7.34916L179.474 1.36566C179.656 0.822801 179.363 0.235481 178.821 0.0538435C178.279 -0.127794 177.692 0.165033 177.511 0.707891L175.511 6.69139ZM170.632 0.838298C170.45 0.29544 169.863 0.00261335 169.321 0.184251C168.779 0.365889 168.486 0.953211 168.668 1.49607L172.853 14.017C173.034 14.5598 173.621 14.8527 174.163 14.671C174.705 14.4894 174.998 13.9021 174.816 13.3592L170.632 0.838298Z" fill="white"/>
<path fill-rule="evenodd" clip-rule="evenodd" d="M192.015 0.707891C191.834 0.165033 191.247 -0.127794 190.705 0.0538436C190.162 0.235481 189.87 0.822803 190.051 1.36566L194.236 13.8866C194.418 14.4294 195.004 14.7223 195.547 14.5406C196.089 14.359 196.381 13.7717 196.2 13.2288L192.015 0.707891ZM185.682 13.1445C185.501 13.6874 185.793 14.2747 186.335 14.4563C186.878 14.6379 187.464 14.3451 187.646 13.8023L189.646 7.81876C189.827 7.2759 189.535 6.68858 188.992 6.50695C188.45 6.32531 187.863 6.61814 187.682 7.16099L185.682 13.1445Z" fill="white"/>
<path fill-rule="evenodd" clip-rule="evenodd" d="M120.3 2.15338C119.891 1.6741 119.905 0.990772 120.33 0.627123C120.755 0.263474 121.432 0.35721 121.841 0.836488L129.915 12.8724C130.458 13.6045 130.275 14.0519 129.85 14.4155C129.445 14.7619 128.784 14.6685 128.375 14.1893L120.3 2.15338ZM120.128 8.73795C120.128 8.17802 120.581 7.7241 121.14 7.7241C121.7 7.7241 122.153 8.17802 122.153 8.73795V13.6045C122.153 14.1644 121.7 14.6183 121.14 14.6183C120.581 14.6183 120.128 14.1644 120.128 13.6045V8.73795ZM129.242 0.424353C128.683 0.424353 128.23 0.878271 128.23 1.43821V6.30471C128.23 6.86464 128.683 7.31856 129.242 7.31856C129.802 7.31856 130.255 6.86464 130.255 6.30471V1.43821C130.255 0.878271 129.802 0.424353 129.242 0.424353Z" fill="white"/>
<path fill-rule="evenodd" clip-rule="evenodd" d="M136.504 2.15338C136.095 1.6741 136.109 0.990772 136.534 0.627123C136.959 0.263474 137.636 0.35721 138.045 0.836488L146.119 12.8724C146.662 13.6045 146.479 14.0519 146.054 14.4155C145.649 14.7619 144.987 14.6685 144.579 14.1893L136.504 2.15338ZM136.332 8.73795C136.332 8.17802 136.785 7.7241 137.344 7.7241C137.904 7.7241 138.357 8.17802 138.357 8.73795V13.6045C138.357 14.1644 137.904 14.6183 137.344 14.6183C136.785 14.6183 136.332 14.1644 136.332 13.6045V8.73795ZM145.446 0.424353C144.887 0.424353 144.433 0.878271 144.433 1.43821V6.30471C144.433 6.86464 144.887 7.31856 145.446 7.31856C146.006 7.31856 146.459 6.86464 146.459 6.30471V1.43821C146.459 0.878271 146.006 0.424353 145.446 0.424353Z" fill="white"/>
<path fill-rule="evenodd" clip-rule="evenodd" d="M243.045 2.15338C242.636 1.6741 242.65 0.990772 243.075 0.627123C243.5 0.263474 244.177 0.35721 244.586 0.836488L252.66 12.8724C253.203 13.6045 253.02 14.0519 252.595 14.4155C252.19 14.7619 251.528 14.6685 251.12 14.1893L243.045 2.15338ZM242.873 8.73795C242.873 8.17802 243.326 7.7241 243.885 7.7241C244.445 7.7241 244.898 8.17802 244.898 8.73795V13.6045C244.898 14.1644 244.445 14.6183 243.885 14.6183C243.326 14.6183 242.873 14.1644 242.873 13.6045V8.73795ZM251.987 0.424353C251.428 0.424353 250.975 0.878271 250.975 1.43821V6.30471C250.975 6.86464 251.428 7.31856 251.987 7.31856C252.547 7.31856 253 6.86464 253 6.30471V1.43821C253 0.878271 252.547 0.424353 251.987 0.424353Z" fill="white"/>
</g>
</svg>
