<svg width="24" height="22" viewBox="0 0 24 22" fill="none" xmlns="http://www.w3.org/2000/svg">
<path d="M23.4921 20.7547H15.0647V12.7094H15.8843C16.6285 12.7094 17.2319 13.3178 17.2269 14.062C17.2269 14.067 17.2269 14.067 17.2269 14.0721V15.4649C17.2269 16.9382 18.4186 18.1299 19.8919 18.1299C21.3652 18.1299 22.5569 16.9382 22.5569 15.4649V7.51016C22.5569 6.68552 22.2502 5.89105 21.687 5.28263L17.7549 0.802426L17.0006 1.46616L20.0478 4.9407C18.9466 5.12675 18.2024 6.16761 18.3884 7.2688C18.5493 8.24429 19.3941 8.9583 20.3847 8.9583C20.802 8.95327 21.2093 8.82757 21.5512 8.58621V15.4649C21.5512 16.3801 20.807 17.1242 19.8919 17.1242C18.9767 17.1242 18.2326 16.3801 18.2326 15.4649V14.0721C18.2376 12.7697 17.1867 11.7088 15.8894 11.7037H15.8843H15.0647V2.33605C15.0647 1.1896 14.1395 0.239258 12.9931 0.239258H3.65053C2.50409 0.239258 1.58894 1.19463 1.58894 2.33605V20.7547H0.502828C0.226273 20.7547 0 20.9809 0 21.2575C0 21.534 0.226273 21.7603 0.502828 21.7603H23.4972C23.7737 21.7603 24 21.534 24 21.2575C24 20.9809 23.7737 20.7547 23.4921 20.7547ZM20.3847 7.94762C19.8215 7.94762 19.369 7.49004 19.369 6.9319C19.369 6.37376 19.8265 5.91619 20.3847 5.91619C20.9478 5.91619 21.4004 6.37376 21.4004 6.9319C21.4004 7.49004 20.9428 7.94762 20.3847 7.94762ZM14.0591 20.7547H2.59459V2.33605C2.59459 1.74271 3.0572 1.24491 3.65053 1.24491H12.9931C13.5864 1.24491 14.0591 1.74774 14.0591 2.33605V20.7547Z" fill="#333333"/>
</svg>
