<svg width="24" height="22" viewBox="0 0 24 22" fill="none" xmlns="http://www.w3.org/2000/svg">
<path d="M16.2974 11.0441L17.2917 12.0384C17.4684 12.2152 17.7038 12.3125 17.9546 12.3125C18.2054 12.3125 18.4408 12.2152 18.6175 12.0384L23.5892 7.06674C23.8541 6.80186 24 6.44871 24 6.0724C24 5.69605 23.8541 5.3429 23.5892 5.07802L19.6118 1.10061C19.0636 0.552329 18.1715 0.55247 17.6231 1.10061L12.6514 6.07236C12.286 6.43788 12.286 7.03262 12.6515 7.39814L13.6458 8.39248C13.7671 8.51379 13.9384 8.55415 14.0934 8.51468L12.0003 10.5137L9.90701 8.51459C9.94474 8.52424 9.98364 8.52977 10.0232 8.52977C10.1475 8.52977 10.2668 8.48037 10.3547 8.39248L11.349 7.39814C11.7145 7.03262 11.7145 6.43788 11.349 6.07231L6.3773 1.10061C6.11246 0.835776 5.75931 0.689904 5.38296 0.689904C5.00661 0.689904 4.65346 0.835729 4.38862 1.10061L0.411179 5.07797C-0.13706 5.62626 -0.13706 6.51836 0.411179 7.0667L5.38292 12.0384C5.56568 12.2211 5.80577 12.3125 6.04581 12.3125C6.28585 12.3125 6.52594 12.2212 6.7087 12.0384L7.70304 11.0441C7.79093 10.9562 7.84033 10.8369 7.84033 10.7126C7.84033 10.673 7.8348 10.6341 7.82514 10.5964L9.77538 12.6385L6.08753 16.1604C5.38423 16.1248 4.66902 16.3748 4.13307 16.9109C3.64609 17.3978 3.37797 18.0452 3.37797 18.7339C3.37797 19.4225 3.64614 20.0699 4.13307 20.5569C4.63574 21.0595 5.29578 21.3107 5.95604 21.3107C6.61617 21.3107 7.27644 21.0594 7.77897 20.5569C8.26595 20.0699 8.53407 19.4226 8.53407 18.7339C8.53407 18.6894 8.53285 18.6451 8.53065 18.6011L12.0002 14.9681L15.4698 18.601C15.4676 18.6451 15.4664 18.6894 15.4664 18.7338C15.4664 19.4225 15.7345 20.0699 16.2214 20.5568C16.724 21.0594 17.3842 21.3107 18.0444 21.3107C18.7046 21.3107 19.3648 21.0594 19.8674 20.5568C20.3543 20.0699 20.6224 19.4225 20.6224 18.7338C20.6224 18.0452 20.3543 17.3978 19.8674 16.9108C19.3314 16.3748 18.6162 16.1249 17.9129 16.1604L14.2251 12.6385L16.1753 10.5964C16.1656 10.6341 16.1601 10.673 16.1601 10.7126C16.1601 10.837 16.2095 10.9562 16.2974 11.0441ZM17.2917 2.75789L21.932 7.39814L21.2691 8.06108L16.6288 3.42083L17.2917 2.75789ZM18.949 1.76351L22.9264 5.74091C23.0141 5.82871 23.0625 5.94641 23.0625 6.07231C23.0625 6.19821 23.0141 6.31596 22.9264 6.40376L22.5949 6.7352L17.9546 2.09495L18.2861 1.76351C18.4688 1.58084 18.7662 1.58075 18.949 1.76351ZM13.3144 6.73525L15.9659 4.08373L20.6061 8.72397L17.9546 11.3755L17.2666 10.6874C17.9537 9.74316 17.8517 8.62099 16.9603 7.72954C16.0688 6.83809 14.9467 6.73595 14.0023 7.42327L13.3144 6.73525ZM1.07412 5.74091L5.05152 1.76351C5.13931 1.67571 5.25701 1.62739 5.38296 1.62739C5.50891 1.62739 5.62661 1.67571 5.71441 1.76351L6.04585 2.09495L1.40561 6.7352L1.07416 6.40376C0.891356 6.22104 0.891356 5.92363 1.07412 5.74091ZM6.04585 11.3755L3.39433 8.72402L4.22307 7.89529C4.40611 7.71224 4.40611 7.41544 4.22307 7.23235C4.04002 7.04935 3.74322 7.04935 3.56013 7.23235L2.73139 8.06108L2.06846 7.39814L6.7087 2.75789L7.37164 3.42088L6.54314 4.24938C6.36005 4.43242 6.36005 4.72923 6.54314 4.91232C6.63469 5.00382 6.75464 5.04961 6.87459 5.04961C6.99454 5.04961 7.11453 5.00382 7.20603 4.91232L8.03458 4.08377L10.6861 6.73525L9.99794 7.42341C9.62154 7.14962 9.21037 6.9962 8.78948 6.9751C8.16925 6.94431 7.56476 7.20493 7.04015 7.72964C6.14874 8.62104 6.0467 9.74325 6.73387 10.6875L6.04585 11.3755ZM7.11608 19.8939C6.47644 20.5336 5.4356 20.5336 4.79596 19.8939C4.48612 19.584 4.31545 19.1721 4.31545 18.7338C4.31545 18.2956 4.48612 17.8836 4.79596 17.5737C5.11578 17.2539 5.53591 17.094 5.956 17.094C6.37613 17.094 6.79621 17.2539 7.11608 17.5737C7.42597 17.8836 7.59659 18.2956 7.59659 18.7338C7.59659 19.1721 7.42597 19.584 7.11608 19.8939ZM8.24392 17.5439C8.12368 17.3135 7.96806 17.0999 7.77902 16.9109C7.58777 16.7196 7.37361 16.565 7.14542 16.4465L10.4229 13.3165L11.3521 14.2894L8.24392 17.5439ZM19.685 18.7338C19.685 19.1721 19.5143 19.584 19.2045 19.8939C18.5648 20.5336 17.524 20.5336 16.8843 19.8939C16.5745 19.584 16.4038 19.1721 16.4038 18.7338C16.4038 18.2956 16.5745 17.8836 16.8843 17.5737C17.524 16.9341 18.5649 16.9341 19.2045 17.5737C19.5143 17.8836 19.685 18.2956 19.685 18.7338ZM16.2214 16.9109C16.0324 17.0999 15.8767 17.3135 15.7565 17.5439L7.39287 8.78641C7.46722 8.65849 7.5687 8.52687 7.70308 8.39253C7.83264 8.26297 7.96413 8.15966 8.09692 8.08222L16.8551 16.4465C16.6269 16.565 16.4127 16.7196 16.2214 16.9109ZM12.6789 11.1618L15.9035 8.08227C16.0314 8.15661 16.163 8.25814 16.2974 8.39253C16.4318 8.52687 16.5333 8.65854 16.6076 8.78641L13.5472 11.991L12.6789 11.1618Z" fill="#333333"/>
</svg>
