<svg width="24" height="13" viewBox="0 0 24 13" fill="none" xmlns="http://www.w3.org/2000/svg">
<path d="M22.0914 4.46399C22.0818 4.45992 22.072 4.45633 22.0622 4.45295C21.9417 4.4086 21.8149 4.3667 21.6798 4.32824C20.1047 3.88001 16.8348 3.87486 16.6964 3.87486H16.0063L14.646 1.59486C14.0255 0.559863 13.4438 -0.000976562 12.1476 -0.000976562C12.1475 -0.000976562 12.1471 -0.000976562 12.1469 -0.000976562L6.89593 -0.000173024C5.85648 -1.23095e-05 4.82411 0.69947 4.20166 1.82527C4.2 1.82822 4.19839 1.83117 4.19689 1.83417L3.57557 3.02324L1.23471 3.30529C1.22625 3.30631 1.21779 3.30759 1.20938 3.30909C0.463393 3.44468 0 3.99883 0 4.75531V7.60654C0 8.76765 0.973339 9.32425 1.71729 9.52301C1.76721 10.898 2.90073 12.0014 4.28775 12.0014C5.56002 12.0014 6.61886 11.0726 6.82361 9.85734H17.1997C17.4045 11.0726 18.4636 12.0014 19.7361 12.0014C21.0084 12.0014 22.0672 11.0726 22.272 9.85734H23.5714C23.8081 9.85734 24 9.66545 24 9.42877V6.93325C24 6.11372 23.6554 5.05145 22.0914 4.46399ZM22.8732 6.02184L21.875 6.02206V5.60206C21.875 5.55299 21.9079 5.44563 21.9927 5.34818C22.3896 5.52465 22.6825 5.74836 22.8732 6.02184ZM15.0082 3.87486H6.43141C6.35459 3.87486 6.29973 3.84454 6.27948 3.81449C6.25045 3.77142 6.27359 3.69245 6.28913 3.65093L6.75123 2.69174C6.94232 2.30029 7.22566 2.13331 7.6987 2.13331H13.9692L15.0082 3.87486ZM0.857143 5.13331H1.2863C1.52261 5.13331 1.71488 5.32558 1.71488 5.56188V5.9994H0.857143V5.13331ZM4.28775 11.1443C3.34173 11.1443 2.57207 10.3747 2.57207 9.42867C2.57207 8.48281 3.34173 7.71325 4.28775 7.71325C5.23345 7.71325 6.00284 8.48281 6.00284 9.42867C6.00284 10.3747 5.23345 11.1443 4.28775 11.1443ZM19.7361 11.1443C18.7901 11.1443 18.0205 10.3747 18.0205 9.42867C18.0205 8.48281 18.7901 7.71325 19.7361 7.71325C20.6818 7.71325 21.4512 8.48281 21.4512 9.42867C21.4512 10.3747 20.6818 11.1443 19.7361 11.1443ZM23.1429 9.0002H22.272C22.0674 7.78499 21.0085 6.85606 19.7361 6.85606C18.4634 6.85606 17.4043 7.78499 17.1996 9.0002H6.82361C6.61896 7.78499 5.56007 6.85606 4.2877 6.85606C3.13618 6.85606 2.15898 7.61645 1.83177 8.66142C1.43191 8.5359 0.857143 8.24447 0.857143 7.60654V6.85654H2.14345C2.38013 6.85654 2.57202 6.66465 2.57202 6.42797V5.56188C2.57202 4.85297 1.99527 4.27617 1.2863 4.27617H1.05846C1.13427 4.21826 1.23139 4.1777 1.35102 4.15461L3.87354 3.8507C4.02257 3.84267 4.15923 3.75701 4.23021 3.6212L4.95418 2.23563C5.42593 1.38518 6.16961 0.857023 6.89604 0.856916L12.1471 0.856113C12.1473 0.856113 12.1475 0.856113 12.1477 0.856113C12.7058 0.856113 13.0501 0.975952 13.3562 1.27611H7.69864C6.89561 1.27611 6.31768 1.62583 5.97996 2.3176L5.50982 3.29345C5.50575 3.30192 5.502 3.31043 5.49846 3.31911C5.35671 3.67038 5.38179 4.01656 5.56891 4.2939C5.75405 4.56818 6.07645 4.7319 6.43136 4.7319H16.6964C16.727 4.7319 19.5864 4.73613 21.1487 5.07877C21.0601 5.25781 21.0178 5.44204 21.0178 5.60201V6.4509C21.0178 6.56463 21.0631 6.67365 21.1435 6.75406C21.2238 6.83436 21.3328 6.87947 21.4464 6.87947C21.4465 6.87947 21.4466 6.87947 21.4467 6.87947L23.1417 6.87888C23.1422 6.89693 23.1428 6.91493 23.1428 6.93325V9.0002H23.1429Z" fill="#333333"/>
</svg>
