<svg width="18" height="18" viewBox="0 0 18 18" fill="none" xmlns="http://www.w3.org/2000/svg">
<path d="M16.5938 13.9022V4.09781C17.4121 3.80756 18 3.026 18 2.10938C18 0.946266 17.0537 0 15.8906 0C14.7275 0 13.7812 0.946266 13.7812 2.10938C13.7812 3.026 14.3691 3.80753 15.1875 4.09781V8.29688H9.70312V4.09781C10.5215 3.80756 11.1094 3.026 11.1094 2.10938C11.1094 0.946266 10.1631 0 9 0C7.83689 0 6.89062 0.946266 6.89062 2.10938C6.89062 3.026 7.47851 3.80753 8.29688 4.09781V8.29688H2.10938C1.72104 8.29688 1.40625 8.61166 1.40625 9V13.9022C0.587883 14.1925 0 14.974 0 15.8906C0 17.0537 0.946266 18 2.10938 18C3.27248 18 4.21875 17.0537 4.21875 15.8906C4.21875 14.974 3.63087 14.1925 2.8125 13.9022V9.70312H8.29688V13.9022C7.47851 14.1924 6.89062 14.974 6.89062 15.8906C6.89062 17.0537 7.83689 18 9 18C10.1631 18 11.1094 17.0537 11.1094 15.8906C11.1094 14.974 10.5215 14.1925 9.70312 13.9022V9.70312H15.1875V13.9022C14.3691 14.1924 13.7812 14.974 13.7812 15.8906C13.7812 17.0537 14.7275 18 15.8906 18C17.0537 18 18 17.0537 18 15.8906C18 14.974 17.4121 14.1925 16.5938 13.9022ZM2.10938 16.5938C1.72167 16.5938 1.40625 16.2783 1.40625 15.8906C1.40625 15.5029 1.72167 15.1875 2.10938 15.1875C2.49708 15.1875 2.8125 15.5029 2.8125 15.8906C2.8125 16.2783 2.49708 16.5938 2.10938 16.5938ZM9 16.5938C8.6123 16.5938 8.29688 16.2783 8.29688 15.8906C8.29688 15.5029 8.6123 15.1875 9 15.1875C9.3877 15.1875 9.70312 15.5029 9.70312 15.8906C9.70312 16.2783 9.3877 16.5938 9 16.5938ZM9 2.8125C8.6123 2.8125 8.29688 2.49708 8.29688 2.10938C8.29688 1.72167 8.6123 1.40625 9 1.40625C9.3877 1.40625 9.70312 1.72167 9.70312 2.10938C9.70312 2.49708 9.3877 2.8125 9 2.8125ZM15.8906 1.40625C16.2783 1.40625 16.5938 1.72167 16.5938 2.10938C16.5938 2.49708 16.2783 2.8125 15.8906 2.8125C15.5029 2.8125 15.1875 2.49708 15.1875 2.10938C15.1875 1.72167 15.5029 1.40625 15.8906 1.40625ZM15.8906 16.5938C15.5029 16.5938 15.1875 16.2783 15.1875 15.8906C15.1875 15.5029 15.5029 15.1875 15.8906 15.1875C16.2783 15.1875 16.5938 15.5029 16.5938 15.8906C16.5938 16.2783 16.2783 16.5938 15.8906 16.5938Z" fill="#333333"/>
</svg>
