<svg width="655" height="145" viewBox="0 0 655 145" fill="none" xmlns="http://www.w3.org/2000/svg">
<path d="M386.049 121.169C387.063 123.452 387.571 125.481 387.571 127.256C387.571 130.807 386.112 133.85 383.196 136.386C380.406 138.795 377.172 140 373.495 140C371.086 140 368.803 139.366 366.647 138.098C364.492 136.703 362.843 134.674 361.702 132.011L351.621 109.566H287.14L277.059 132.011C275.917 134.674 274.269 136.703 272.113 138.098C270.084 139.366 267.802 140 265.266 140C261.588 140 258.291 138.795 255.375 136.386C252.458 133.85 251 130.807 251 127.256C251 125.481 251.507 123.452 252.522 121.169L303.878 13.3203C305.273 10.2769 307.365 7.9944 310.155 6.47273C312.945 4.82424 315.925 4 319.095 4C322.392 4 325.435 4.82424 328.225 6.47273C331.015 8.12121 333.171 10.4037 334.692 13.3203L386.049 121.169ZM341.54 87.1217L319.475 37.6671L297.221 87.1217H341.54Z" fill="black"/>
<path d="M461.369 140C451.462 140 442.245 138.871 433.717 136.614C425.19 134.231 418.23 130.908 412.837 126.645C410.956 125.265 409.577 123.823 408.699 122.318C407.947 120.688 407.571 118.681 407.571 116.299C407.571 113.164 408.511 110.405 410.392 108.022C412.399 105.639 414.656 104.448 417.164 104.448C418.543 104.448 419.86 104.699 421.114 105.201C422.494 105.577 424.124 106.329 426.005 107.458C431.397 110.844 436.852 113.352 442.37 114.982C447.888 116.487 453.97 117.239 460.616 117.239C468.893 117.239 475.226 115.86 479.615 113.101C484.004 110.342 486.198 106.392 486.198 101.25C486.198 97.3628 484.129 94.2278 479.991 91.8451C475.978 89.4624 468.767 87.2052 458.359 85.0733C446.696 82.6906 437.354 79.8064 430.331 76.4205C423.434 73.0346 418.355 68.8336 415.095 63.8174C411.96 58.8013 410.392 52.7192 410.392 45.5712C410.392 37.6708 412.649 30.5855 417.164 24.3154C421.804 17.9198 428.137 12.9663 436.163 9.45505C444.314 5.81835 453.468 4 463.626 4C481.433 4 496.105 8.45182 507.642 17.3555C509.524 18.8603 510.84 20.4278 511.593 22.0581C512.471 23.5629 512.909 25.444 512.909 27.7013C512.909 30.8363 511.906 33.5952 509.9 35.9779C508.019 38.3605 505.824 39.5519 503.316 39.5519C501.937 39.5519 500.62 39.3638 499.366 38.9876C498.237 38.6113 496.607 37.7962 494.475 36.5422C489.334 33.2817 484.568 30.8363 480.179 29.2061C475.915 27.5758 470.46 26.7607 463.814 26.7607C456.164 26.7607 450.145 28.2656 445.756 31.2752C441.367 34.1595 439.172 38.1724 439.172 43.314C439.172 46.3237 439.987 48.8317 441.618 50.8382C443.373 52.7192 446.195 54.4122 450.082 55.917C454.095 57.4219 459.738 58.9894 467.012 60.6196C484.067 64.3817 496.293 69.2098 503.692 75.1037C511.216 80.9977 514.979 89.0862 514.979 99.3693C514.979 107.395 512.721 114.48 508.207 120.625C503.818 126.77 497.548 131.535 489.396 134.921C481.37 138.307 472.028 140 461.369 140Z" fill="black"/>
<path d="M640.208 4C644.64 4 648.185 5.32961 650.845 7.98883C653.504 10.648 654.833 14.1937 654.833 18.6257V125.184C654.833 129.616 653.504 133.225 650.845 136.011C648.185 138.67 644.64 140 640.208 140C635.776 140 632.23 138.67 629.571 136.011C627.038 133.352 625.772 129.743 625.772 125.184V82.6369H564.04V125.184C564.04 129.616 562.71 133.225 560.051 136.011C557.392 138.67 553.91 140 549.604 140C545.172 140 541.627 138.67 538.967 136.011C536.308 133.352 534.979 129.743 534.979 125.184V18.6257C534.979 14.1937 536.308 10.648 538.967 7.98883C541.627 5.32961 545.172 4 549.604 4C554.036 4 557.519 5.32961 560.051 7.98883C562.71 10.648 564.04 14.1937 564.04 18.6257V59.0838H625.772V18.6257C625.772 14.1937 627.038 10.648 629.571 7.98883C632.23 5.32961 635.776 4 640.208 4Z" fill="black"/>
<g filter="url(#filter0_d)">
<path fill-rule="evenodd" clip-rule="evenodd" d="M60.1051 120.401C59.8407 120.793 59.5796 121.182 59.3219 121.566C58.5152 122.77 57.7408 123.936 56.9985 125.062C55.7994 126.88 54.6839 128.59 53.6507 130.174C53.245 130.796 52.8521 131.399 52.4717 131.98C46.9189 140.476 51.0124 140.476 56.9985 140.476H172.202C202.539 140.476 227.119 115.344 227.119 84.3415C227.119 56.211 214.565 30.9945 179.138 33.1076C173.373 33.4515 167.776 34.1055 162.802 35.2048C111.162 50.6384 78.0214 93.8404 60.1051 120.401ZM167.819 54.6599C129.537 66.3735 102.478 96.06 84.6565 120.401H172.202C191.037 120.401 207.044 104.676 207.044 84.3415C207.044 72.7448 204.38 64.5235 200.675 59.8448C197.798 56.2108 192.569 52.4166 180.334 53.1464C175.54 53.4323 171.305 53.9397 167.819 54.6599Z" fill="#5FC4FF"/>
</g>
<g filter="url(#filter1_d)">
<path fill-rule="evenodd" clip-rule="evenodd" d="M13.2851 4C5.51294 4.00001 0.198099 4.00001 7.40764 14.7931C9.08941 17.3108 11.056 20.201 13.2851 23.3899C14.2114 24.7152 15.1831 26.092 16.1985 27.5152C16.5695 28.035 16.9462 28.5611 17.3287 29.093C42.8052 64.5227 93.8121 126.199 147.187 137.744C153.644 139.14 160.912 139.971 168.397 140.408C204.075 142.491 230.693 111.056 230.693 75.317C230.693 35.9297 198.779 4 159.392 4L13.2851 4ZM48.6449 29.093C57.3769 40.3459 67.8491 52.8272 79.5026 64.7684C103.461 89.3177 129.16 108.171 152.492 113.218C157.278 114.253 163.173 114.967 169.859 115.358C187.828 116.407 205.6 100.155 205.6 75.317C205.6 49.7809 184.913 29.093 159.392 29.093L48.6449 29.093Z" fill="#0084D0"/>
</g>
<defs>
<filter id="filter0_d" x="45.8472" y="28.9836" width="185.271" height="115.492" filterUnits="userSpaceOnUse" color-interpolation-filters="sRGB">
<feFlood flood-opacity="0" result="BackgroundImageFix"/>
<feColorMatrix in="SourceAlpha" type="matrix" values="0 0 0 0 0 0 0 0 0 0 0 0 0 0 0 0 0 0 127 0"/>
<feOffset/>
<feGaussianBlur stdDeviation="2"/>
<feColorMatrix type="matrix" values="0 0 0 0 0 0 0 0 0 0 0 0 0 0 0 0 0 0 0.25 0"/>
<feBlend mode="normal" in2="BackgroundImageFix" result="effect1_dropShadow"/>
<feBlend mode="normal" in="SourceGraphic" in2="effect1_dropShadow" result="shape"/>
</filter>
<filter id="filter1_d" x="0" y="0" width="234.693" height="144.506" filterUnits="userSpaceOnUse" color-interpolation-filters="sRGB">
<feFlood flood-opacity="0" result="BackgroundImageFix"/>
<feColorMatrix in="SourceAlpha" type="matrix" values="0 0 0 0 0 0 0 0 0 0 0 0 0 0 0 0 0 0 127 0"/>
<feOffset/>
<feGaussianBlur stdDeviation="2"/>
<feColorMatrix type="matrix" values="0 0 0 0 0 0 0 0 0 0 0 0 0 0 0 0 0 0 0.35 0"/>
<feBlend mode="normal" in2="BackgroundImageFix" result="effect1_dropShadow"/>
<feBlend mode="normal" in="SourceGraphic" in2="effect1_dropShadow" result="shape"/>
</filter>
</defs>
</svg>
