<svg width="44" height="13" viewBox="0 0 44 13" fill="none" xmlns="http://www.w3.org/2000/svg">
  <path d="M1.192 12C0.882667 12 0.642667 11.9147 0.472 11.744C0.301333 11.5733 0.216 11.3387 0.216 11.04V1.664C0.216 1.35467 0.306667 1.10933 0.488 0.927999C0.68 0.735999 0.930667 0.639999 1.24 0.639999C1.56 0.639999 1.81067 0.735999 1.992 0.927999C2.184 1.10933 2.28 1.35467 2.28 1.664V10.304H6.776C7.416 10.304 7.736 10.5867 7.736 11.152C7.736 11.7173 7.416 12 6.776 12H1.192ZM13.5056 12.144C12.407 12.144 11.4523 11.9093 10.6416 11.44C9.84163 10.9707 9.22296 10.2987 8.78563 9.424C8.34829 8.54933 8.12963 7.52533 8.12963 6.352C8.12963 5.17867 8.34296 4.16 8.76963 3.296C9.20696 2.42133 9.83096 1.74933 10.6416 1.28C11.4523 0.810666 12.407 0.575999 13.5056 0.575999C14.6043 0.575999 15.5536 0.810666 16.3536 1.28C17.1643 1.74933 17.783 2.42133 18.2096 3.296C18.647 4.16 18.8656 5.17867 18.8656 6.352C18.8656 7.52533 18.647 8.54933 18.2096 9.424C17.7723 10.2987 17.1483 10.9707 16.3376 11.44C15.5376 11.9093 14.5936 12.144 13.5056 12.144ZM13.5056 10.496C14.5403 10.496 15.3456 10.1387 15.9216 9.424C16.5083 8.70933 16.8016 7.68533 16.8016 6.352C16.8016 5.01867 16.5083 4 15.9216 3.296C15.3456 2.58133 14.5403 2.224 13.5056 2.224C12.4603 2.224 11.6443 2.58133 11.0576 3.296C10.4816 4 10.1936 5.01867 10.1936 6.352C10.1936 7.68533 10.4816 8.70933 11.0576 9.424C11.6443 10.1387 12.4603 10.496 13.5056 10.496ZM29.5424 5.904C29.7877 5.904 29.985 5.97867 30.1344 6.128C30.2837 6.26667 30.3584 6.45333 30.3584 6.688V10.128C30.3584 10.6187 30.2944 10.9653 30.1664 11.168C30.0384 11.3707 29.777 11.536 29.3824 11.664C28.9557 11.8133 28.4597 11.9307 27.8944 12.016C27.329 12.1013 26.785 12.144 26.2624 12.144C25.0997 12.144 24.0917 11.9147 23.2384 11.456C22.385 10.9973 21.729 10.336 21.2704 9.472C20.8224 8.59733 20.5984 7.55733 20.5984 6.352C20.5984 5.168 20.8224 4.144 21.2704 3.28C21.729 2.40533 22.3744 1.73867 23.2064 1.28C24.0384 0.810666 25.0197 0.575999 26.1504 0.575999C27.6544 0.575999 28.8864 0.981333 29.8464 1.792C29.9744 1.90933 30.065 2.02667 30.1184 2.144C30.1824 2.26133 30.2144 2.4 30.2144 2.56C30.2144 2.79467 30.1504 2.992 30.0224 3.152C29.8944 3.312 29.7397 3.392 29.5584 3.392C29.441 3.392 29.3344 3.376 29.2384 3.344C29.1424 3.30133 29.0304 3.23733 28.9024 3.152C28.433 2.82133 27.9957 2.592 27.5904 2.464C27.185 2.32533 26.7264 2.256 26.2144 2.256C25.0517 2.256 24.1717 2.60267 23.5744 3.296C22.9877 3.97867 22.6944 4.99733 22.6944 6.352C22.6944 9.12533 23.9104 10.512 26.3424 10.512C27.0677 10.512 27.793 10.4107 28.5184 10.208V7.376H26.7104C26.4544 7.376 26.2517 7.312 26.1024 7.184C25.9637 7.056 25.8944 6.87467 25.8944 6.64C25.8944 6.40533 25.9637 6.224 26.1024 6.096C26.2517 5.968 26.4544 5.904 26.7104 5.904H29.5424ZM37.7088 12.144C36.6101 12.144 35.6554 11.9093 34.8448 11.44C34.0448 10.9707 33.4261 10.2987 32.9888 9.424C32.5514 8.54933 32.3328 7.52533 32.3328 6.352C32.3328 5.17867 32.5461 4.16 32.9728 3.296C33.4101 2.42133 34.0341 1.74933 34.8448 1.28C35.6554 0.810666 36.6101 0.575999 37.7088 0.575999C38.8074 0.575999 39.7568 0.810666 40.5568 1.28C41.3674 1.74933 41.9861 2.42133 42.4128 3.296C42.8501 4.16 43.0688 5.17867 43.0688 6.352C43.0688 7.52533 42.8501 8.54933 42.4128 9.424C41.9754 10.2987 41.3514 10.9707 40.5408 11.44C39.7408 11.9093 38.7968 12.144 37.7088 12.144ZM37.7088 10.496C38.7434 10.496 39.5488 10.1387 40.1248 9.424C40.7114 8.70933 41.0048 7.68533 41.0048 6.352C41.0048 5.01867 40.7114 4 40.1248 3.296C39.5488 2.58133 38.7434 2.224 37.7088 2.224C36.6634 2.224 35.8474 2.58133 35.2608 3.296C34.6848 4 34.3968 5.01867 34.3968 6.352C34.3968 7.68533 34.6848 8.70933 35.2608 9.424C35.8474 10.1387 36.6634 10.496 37.7088 10.496Z" fill="black"/>
</svg>
