<svg width="98" height="12" viewBox="0 0 98 12" fill="none" xmlns="http://www.w3.org/2000/svg">
<path d="M0.106 1.088H4.012C4.66533 1.088 5.29533 1.19067 5.902 1.396C6.50867 1.592 7.04533 1.89533 7.512 2.306C7.97867 2.71667 8.352 3.23467 8.632 3.86C8.912 4.476 9.052 5.204 9.052 6.044C9.052 6.89333 8.88867 7.63067 8.562 8.256C8.24467 8.872 7.82933 9.38533 7.316 9.796C6.812 10.1973 6.24733 10.5007 5.622 10.706C5.006 10.902 4.39933 11 3.802 11H0.106V1.088ZM3.186 9.404C3.73667 9.404 4.25467 9.34333 4.74 9.222C5.23467 9.09133 5.664 8.89533 6.028 8.634C6.392 8.36333 6.67667 8.018 6.882 7.598C7.09667 7.16867 7.204 6.65067 7.204 6.044C7.204 5.44667 7.11067 4.93333 6.924 4.504C6.73733 4.07467 6.476 3.72933 6.14 3.468C5.81333 3.19733 5.42133 3.00133 4.964 2.88C4.516 2.74933 4.02133 2.684 3.48 2.684H1.87V9.404H3.186ZM10.729 1.088H17.295V2.684H12.493V5.12H17.043V6.716H12.493V9.404H17.547V11H10.729V1.088ZM22.4936 1.088H24.0196L28.2896 11H26.2736L25.3496 8.732H21.0516L20.1556 11H18.1816L22.4936 1.088ZM24.7336 7.22L23.2076 3.188L21.6536 7.22H24.7336ZM29.3912 1.088H31.1552V9.404H35.3692V11H29.3912V1.088ZM36.6509 1.088H43.2169V2.684H38.4149V5.12H42.9649V6.716H38.4149V9.404H43.4689V11H36.6509V1.088ZM45.2095 1.088H48.6535C49.1295 1.088 49.5868 1.13467 50.0255 1.228C50.4735 1.312 50.8702 1.46133 51.2155 1.676C51.5608 1.89067 51.8362 2.18 52.0415 2.544C52.2468 2.908 52.3495 3.37 52.3495 3.93C52.3495 4.64867 52.1488 5.25067 51.7475 5.736C51.3555 6.22133 50.7908 6.51533 50.0535 6.618L52.6855 11H50.5575L48.2615 6.8H46.9735V11H45.2095V1.088ZM48.3455 5.288C48.5975 5.288 48.8495 5.27867 49.1015 5.26C49.3535 5.232 49.5822 5.176 49.7875 5.092C50.0022 4.99867 50.1748 4.86333 50.3055 4.686C50.4362 4.49933 50.5015 4.24267 50.5015 3.916C50.5015 3.62667 50.4408 3.39333 50.3195 3.216C50.1982 3.03867 50.0395 2.908 49.8435 2.824C49.6475 2.73067 49.4282 2.67 49.1855 2.642C48.9522 2.614 48.7235 2.6 48.4995 2.6H46.9735V5.288H48.3455ZM58.1705 1.088H59.9345V9.404H64.1485V11H58.1705V1.088ZM64.8982 6.086C64.8982 5.29267 65.0289 4.574 65.2902 3.93C65.5516 3.27667 65.9109 2.72133 66.3682 2.264C66.8349 1.80667 67.3856 1.45667 68.0202 1.214C68.6642 0.962 69.3689 0.836 70.1342 0.836C70.9089 0.826666 71.6182 0.943333 72.2622 1.186C72.9062 1.41933 73.4616 1.76467 73.9282 2.222C74.3949 2.67933 74.7589 3.23 75.0202 3.874C75.2816 4.518 75.4122 5.23667 75.4122 6.03C75.4122 6.80467 75.2816 7.50933 75.0202 8.144C74.7589 8.77867 74.3949 9.32467 73.9282 9.782C73.4616 10.2393 72.9062 10.5987 72.2622 10.86C71.6182 11.112 70.9089 11.2427 70.1342 11.252C69.3689 11.252 68.6642 11.1307 68.0202 10.888C67.3856 10.636 66.8349 10.286 66.3682 9.838C65.9109 9.38067 65.5516 8.83467 65.2902 8.2C65.0289 7.56533 64.8982 6.86067 64.8982 6.086ZM66.7462 5.974C66.7462 6.506 66.8256 6.996 66.9842 7.444C67.1522 7.892 67.3856 8.27933 67.6842 8.606C67.9829 8.93267 68.3376 9.18933 68.7482 9.376C69.1682 9.56267 69.6349 9.656 70.1482 9.656C70.6616 9.656 71.1282 9.56267 71.5482 9.376C71.9682 9.18933 72.3276 8.93267 72.6262 8.606C72.9249 8.27933 73.1536 7.892 73.3122 7.444C73.4802 6.996 73.5642 6.506 73.5642 5.974C73.5642 5.47933 73.4802 5.01733 73.3122 4.588C73.1536 4.15867 72.9249 3.78533 72.6262 3.468C72.3276 3.14133 71.9682 2.88933 71.5482 2.712C71.1282 2.52533 70.6616 2.432 70.1482 2.432C69.6349 2.432 69.1682 2.52533 68.7482 2.712C68.3376 2.88933 67.9829 3.14133 67.6842 3.468C67.3856 3.78533 67.1522 4.15867 66.9842 4.588C66.8256 5.01733 66.7462 5.47933 66.7462 5.974ZM85.8983 10.272C84.6757 10.9253 83.3083 11.252 81.7963 11.252C81.031 11.252 80.3263 11.1307 79.6823 10.888C79.0477 10.636 78.497 10.286 78.0303 9.838C77.573 9.38067 77.2137 8.83467 76.9523 8.2C76.691 7.56533 76.5603 6.86067 76.5603 6.086C76.5603 5.29267 76.691 4.574 76.9523 3.93C77.2137 3.27667 77.573 2.72133 78.0303 2.264C78.497 1.80667 79.0477 1.45667 79.6823 1.214C80.3263 0.962 81.031 0.836 81.7963 0.836C82.5523 0.836 83.2617 0.929333 83.9243 1.116C84.587 1.29333 85.1797 1.61533 85.7023 2.082L84.4003 3.398C84.083 3.09 83.6957 2.852 83.2383 2.684C82.7903 2.516 82.3143 2.432 81.8103 2.432C81.297 2.432 80.8303 2.52533 80.4103 2.712C79.9997 2.88933 79.645 3.14133 79.3463 3.468C79.0477 3.78533 78.8143 4.15867 78.6463 4.588C78.4877 5.01733 78.4083 5.47933 78.4083 5.974C78.4083 6.506 78.4877 6.996 78.6463 7.444C78.8143 7.892 79.0477 8.27933 79.3463 8.606C79.645 8.93267 79.9997 9.18933 80.4103 9.376C80.8303 9.56267 81.297 9.656 81.8103 9.656C82.2583 9.656 82.6783 9.614 83.0703 9.53C83.4717 9.446 83.8263 9.31533 84.1343 9.138V6.8H82.1043V5.204H85.8983V10.272ZM87.4568 6.086C87.4568 5.29267 87.5875 4.574 87.8488 3.93C88.1101 3.27667 88.4695 2.72133 88.9268 2.264C89.3935 1.80667 89.9441 1.45667 90.5788 1.214C91.2228 0.962 91.9275 0.836 92.6928 0.836C93.4675 0.826666 94.1768 0.943333 94.8208 1.186C95.4648 1.41933 96.0201 1.76467 96.4868 2.222C96.9535 2.67933 97.3175 3.23 97.5788 3.874C97.8401 4.518 97.9708 5.23667 97.9708 6.03C97.9708 6.80467 97.8401 7.50933 97.5788 8.144C97.3175 8.77867 96.9535 9.32467 96.4868 9.782C96.0201 10.2393 95.4648 10.5987 94.8208 10.86C94.1768 11.112 93.4675 11.2427 92.6928 11.252C91.9275 11.252 91.2228 11.1307 90.5788 10.888C89.9441 10.636 89.3935 10.286 88.9268 9.838C88.4695 9.38067 88.1101 8.83467 87.8488 8.2C87.5875 7.56533 87.4568 6.86067 87.4568 6.086ZM89.3048 5.974C89.3048 6.506 89.3841 6.996 89.5428 7.444C89.7108 7.892 89.9441 8.27933 90.2428 8.606C90.5415 8.93267 90.8961 9.18933 91.3068 9.376C91.7268 9.56267 92.1935 9.656 92.7068 9.656C93.2201 9.656 93.6868 9.56267 94.1068 9.376C94.5268 9.18933 94.8861 8.93267 95.1848 8.606C95.4835 8.27933 95.7121 7.892 95.8708 7.444C96.0388 6.996 96.1228 6.506 96.1228 5.974C96.1228 5.47933 96.0388 5.01733 95.8708 4.588C95.7121 4.15867 95.4835 3.78533 95.1848 3.468C94.8861 3.14133 94.5268 2.88933 94.1068 2.712C93.6868 2.52533 93.2201 2.432 92.7068 2.432C92.1935 2.432 91.7268 2.52533 91.3068 2.712C90.8961 2.88933 90.5415 3.14133 90.2428 3.468C89.9441 3.78533 89.7108 4.15867 89.5428 4.588C89.3841 5.01733 89.3048 5.47933 89.3048 5.974Z" fill="white"/>
</svg>
