<svg width="21" height="22" viewBox="0 0 21 22" fill="none" xmlns="http://www.w3.org/2000/svg">
<path d="M21 2.75V19.25C21 20.4922 19.9922 21.5 18.75 21.5H14.7516V13.1937H17.5922L18 10.025H14.7516V8C14.7516 7.08125 15.0047 6.45781 16.3219 6.45781H18V3.62656C17.7094 3.58906 16.7156 3.5 15.5531 3.5C13.1344 3.5 11.475 4.97656 11.475 7.69062V10.0297H8.625V13.1984H11.4797V21.5H2.25C1.00781 21.5 0 20.4922 0 19.25V2.75C0 1.50781 1.00781 0.5 2.25 0.5H18.75C19.9922 0.5 21 1.50781 21 2.75Z" fill="white"/>
</svg>
